# Modelo de rueda generado
v -0.4 1.5 0.0
v 0.4 1.5 0.0
v -0.4 0.9352347027881004 1.1727472237020446
v 0.4 0.9352347027881004 1.1727472237020446
v -0.4 -0.3337814009344715 1.4623918682727355
v 0.4 -0.3337814009344715 1.4623918682727355
v -0.4 -1.3514533018536286 0.6508256086763373
v 0.4 -1.3514533018536286 0.6508256086763373
v -0.4 -1.3514533018536288 -0.650825608676337
v 0.4 -1.3514533018536288 -0.650825608676337
v -0.4 -0.3337814009344719 -1.4623918682727355
v 0.4 -0.3337814009344719 -1.4623918682727355
v -0.4 0.9352347027881001 -1.1727472237020449
v 0.4 0.9352347027881001 -1.1727472237020449
v -0.4 0 0
v 0.4 0 0
vn 0.0 -0.9009688679024193 -0.4338837391175581
vn 0.0 -0.2225209339563145 -0.9749279121818235
vn 0.0 0.6234898018587336 -0.7818314824680298
vn 0.0 1.0 -1.7058686840598538e-16
vn -0.0 0.6234898018587338 0.7818314824680297
vn 0.0 -0.2225209339563143 0.9749279121818235
vn 0.0 -0.9009688679024191 0.43388373911755823
vn 0.0 1.0 0.0
vn 0.0 -1.0 0.0
vn -1.0 0.0 0.0
vn 1.0 0.0 0.0
f 2//0 3//0 4//0
f 1//12 3//12 2//12
f 15//10 3//10 1//10
f 14//11 2//11 4//11
f 14//11 2//11 4//11
f 15//10 3//10 1//10
f 1//11 3//11 15//11
f 4//10 2//10 14//10
f 4//0 5//0 6//0
f 3//13 5//13 4//13
f 15//10 5//10 3//10
f 14//11 4//11 6//11
f 14//11 4//11 6//11
f 15//10 5//10 3//10
f 3//11 5//11 15//11
f 6//10 4//10 14//10
f 6//0 7//0 8//0
f 5//14 7//14 6//14
f 15//10 7//10 5//10
f 14//11 6//11 8//11
f 14//11 6//11 8//11
f 15//10 7//10 5//10
f 5//11 7//11 15//11
f 8//10 6//10 14//10
f 8//0 9//0 10//0
f 7//15 9//15 8//15
f 15//10 9//10 7//10
f 14//11 8//11 10//11
f 14//11 8//11 10//11
f 15//10 9//10 7//10
f 7//11 9//11 15//11
f 10//10 8//10 14//10
f 10//0 11//0 12//0
f 9//16 11//16 10//16
f 15//10 11//10 9//10
f 14//11 10//11 12//11
f 14//11 10//11 12//11
f 15//10 11//10 9//10
f 9//11 11//11 15//11
f 12//10 10//10 14//10
f 12//0 13//0 14//0
f 11//17 13//17 12//17
f 15//10 13//10 11//10
f 14//0 12//0 14//0
f 14//18 12//18 14//18
f 15//10 13//10 11//10
f 11//11 13//11 15//11
f 14//18 12//18 14//18
f 14//0 1//0 2//0
f 13//19 1//19 14//19
f 15//10 1//10 13//10
f 14//18 14//18 2//18
f 14//18 14//18 2//18
f 15//10 1//10 13//10
f 13//11 1//11 15//11
f 2//18 14//18 14//18
